<svg width="90" height="90" viewBox="0 0 90 90" fill="none" xmlns="http://www.w3.org/2000/svg">
<path d="M85.41 4.32986C87.49 6.33986 88.8599 8.97987 89.1799 11.8699C89.1799 13.0699 88.86 13.8799 88.13 15.3899C87.4 16.9099 78.51 32.2999 75.85 36.5599C74.33 39.0599 73.53 42.0199 73.53 44.8999C73.53 47.7799 74.34 50.7499 75.85 53.2399C78.49 57.4999 87.4 72.9599 88.13 74.5099C88.86 76.0299 89.1799 76.7599 89.1799 77.9599C88.8599 80.8499 87.59 83.4899 85.48 85.4199C83.47 87.4999 80.8299 88.8699 78.0199 89.1199C76.8199 89.1199 76.01 88.7999 74.57 88.0699C73.13 87.3399 31.09 63.0399 31.09 63.0399C31.58 67.0499 33.34 70.8999 36.23 73.7099C36.79 74.2699 37.3599 74.7599 37.9899 75.2299C37.4999 75.4699 16.75 87.5899 15.21 88.3199C13.69 89.0499 12.96 89.3699 11.69 89.3699C8.79996 89.0499 6.15995 87.7799 4.22995 85.6699C2.14995 83.6599 0.779961 81.0199 0.459961 78.1299C0.529961 76.9299 0.879949 75.7299 1.50995 74.6799C2.23995 73.1599 11.1299 57.6699 13.7899 53.4099C15.3099 50.9099 16.11 48.0299 16.11 45.0699C16.11 42.1099 15.2999 39.2199 13.7899 36.7299C11.1499 32.3299 2.16995 16.8299 1.50995 15.3199C0.869949 14.2699 0.559961 13.0699 0.459961 11.8699C0.779961 8.97987 2.04996 6.33986 4.15996 4.32986C6.16996 2.24986 8.80995 0.949883 11.7 0.629883C12.9 0.699883 14.1 1.04987 15.22 1.67987C16.49 2.23987 58.44 26.9799 58.44 26.9799C57.95 22.1799 55.59 17.8399 51.72 14.8799C52.02 14.7199 72.8499 2.36987 74.3999 1.70987C75.4499 1.06987 76.65 0.759882 77.92 0.659882C80.73 0.979882 83.38 2.24986 85.38 4.35986L85.4299 4.33987L85.41 4.32986ZM46.31 52.4899L52.31 46.4699C53.14 45.6299 53.14 44.3799 52.31 43.5099L46.31 37.4899C45.48 36.6499 44.2299 36.6499 43.3599 37.4899L37.3599 43.5099C36.5299 44.3499 36.5299 45.5999 37.3599 46.4699L43.3599 52.4899C44.0999 53.2299 45.44 53.2299 46.31 52.4899Z" fill="#FF694A"/>
</svg>
